#!OML:ASF I:\Actors\actors\Patient Classification 2\Patient 1\Session 1\actor1.ASF
:FULLY-SPECIFIED
:DEGREES
488
root 0.465925 18.7164 5.12599 2.83695 -2.91537 3.18697
lowerback 16.8109 -4.29187 12.0268
upperback 6.80231 -3.55333 4.98702
thorax -2.42012 -1.65073 -0.757767
lowerneck -4.41637 -9.66313 -10.7176
upperneck 36.0596 -11.9322 -1.56501
head 13.5627 -6.75244 -0.304419
rclavicle -2.70347e-014 -1.74931e-014
rhumerus -29.9932 -12.3006 -33.8326
rradius 49.9791
rwrist -13.2712
rhand 7.50573 -43.7094
rfingers 7.12502
rthumb 32.7569 -430.761
lclavicle -2.70347e-014 -1.74931e-014
lhumerus -51.7156 -54.0586 118.293
lradius 98.3941
lwrist 27.3629
lhand 19.7419 -5.75576
lfingers 7.12502
lthumb 44.2946 18.0164
rfemur 0 0 0
rtibia 0
rfoot 0 0
rtoes 0
lfemur -10.162 6.21877 -20.8779
ltibia 23.6113
lfoot -17.7475 2.42511
ltoes -53.8591
489
root 0.474033 18.7165 5.12039 2.99545 -2.5088 3.3221
lowerback 16.7663 -4.39476 11.9964
upperback 6.72157 -3.68382 5.07413
thorax -2.49066 -1.72015 -0.620776
lowerneck -4.4237 -9.43638 -10.953
upperneck 36.0805 -11.5818 -1.48518
head 13.5824 -6.62075 -0.188343
rclavicle 5.24792e-014 2.06736e-014
rhumerus -29.9853 -12.126 -33.397
rradius 49.6682
rwrist -11.3932
rhand 3.28389 -43.1121
rfingers 7.12502
rthumb 28.7318 -430.922
lclavicle 5.24792e-014 2.06736e-014
lhumerus -51.6805 -53.677 118.267
lradius 98.4417
lwrist 27.4443
lhand 19.7074 -5.55762
lfingers 7.12502
lthumb 44.2624 18.2267
rfemur 0 0 0
rtibia 0
rfoot 0 0
rtoes 0
lfemur -10.4663 6.17263 -21.0607
ltibia 23.7105
lfoot -17.6227 2.08035
ltoes -53.8941
490
root 0.481082 18.7174 5.11473 3.14557 -2.05199 3.39026
lowerback 16.7597 -4.45991 12.1187
upperback 6.64488 -3.73621 5.12202
thorax -2.57784 -1.74893 -0.622034
lowerneck -4.58155 -9.24952 -10.8308
upperneck 36.2439 -11.2638 -1.61738
head 13.6504 -6.48142 -0.226768
rclavicle 7.15625e-014 -1.22451e-013
rhumerus -30.0678 -11.656 -32.8353
rradius 49.0547
rwrist -7.99892
rhand 0.912406 -42.1361
rfingers 7.12502
rthumb 26.464 -430.308
lclavicle 7.15625e-014 -1.22451e-013
lhumerus -51.8561 -53.4547 118.361
lradius 98.5034
lwrist 27.5351
lhand 19.459 -5.5193
lfingers 7.12502
lthumb 44.0308 18.3521
rfemur 0 0 0
rtibia 0
rfoot 0 0
rtoes 0
lfemur -10.7498 6.06572 -21.1604
ltibia 23.8007
lfoot -17.5152 1.73131
ltoes -53.7932
491
root 0.488056 18.719 5.11006 3.33734 -1.59691 3.3688
lowerback 16.6683 -4.44737 12.4301
upperback 6.61681 -3.6802 5.12714
thorax -2.5674 -1.7164 -0.800935
lowerneck -4.79011 -9.11234 -10.3884
upperneck 36.3465 -11.0414 -1.81446
head 13.673 -6.34803 -0.353014
rclavicle 2.70347e-014 -1.27222e-014
rhumerus -30.2812 -11.0955 -32.1465
rradius 48.303
rwrist -4.38942
rhand 2.11313 -41.8642
rfingers 7.12502
rthumb 27.6128 -429.858
lclavicle 2.70347e-014 -1.27222e-014
lhumerus -52.0896 -53.4326 118.452
lradius 98.4753
lwrist 27.466
lhand 18.9899 -6.04082
lfingers 7.12502
lthumb 43.593 17.9922
rfemur 0 0 0
rtibia 0
rfoot 0 0
rtoes 0
lfemur -11.0494 6.01377 -21.1618
ltibia 23.8612
lfoot -17.3577 1.3367
ltoes -53.7008
492
root 0.496152 18.7211 5.10436 3.55967 -1.12745 3.39792
lowerback 16.5468 -4.43867 12.706
upperback 6.59623 -3.64194 5.11793
thorax -2.53373 -1.69165 -0.974192
lowerneck -4.95875 -8.92509 -9.93401
upperneck 36.3698 -10.7635 -1.97541
head 13.6514 -6.18508 -0.454025
rclavicle 6.04305e-014 -7.31528e-014
rhumerus -30.2303 -10.2757 -31.451
rradius 47.5414
rwrist -2.97402
rhand 4.53329 -42.0086
rfingers 7.12502
rthumb 29.9247 -429.609
lclavicle 6.04305e-014 -7.31528e-014
lhumerus -52.1983 -53.3081 118.389
lradius 98.4854
lwrist 27.3042
lhand 18.907 -6.41608
lfingers 7.12502
lthumb 43.5155 17.6451
rfemur 0 0 0
rtibia 0
rfoot 0 0
rtoes 0
lfemur -11.3927 6.00363 -21.222
ltibia 23.9271
lfoot -17.1645 0.868801
ltoes -53.5346
